<svg id="Capa_1" enable-background="new 0 0 511.996 511.996" height="512" viewBox="0 0 511.996 511.996" width="512" xmlns="http://www.w3.org/2000/svg"><g>
<path d="m261.13 216.091h90.818v-47.488h-125.814c-8.274 0-14.99-6.715-14.99-14.99v-125.804l-196.154-.312c-8.275 0-14.99 6.715-14.99 14.99v426.71c0 8.274 6.715 14.99 14.99 14.99l321.969.312c8.274 0 14.99-6.716 14.99-14.99v-83.533h-90.819c-24.793 0-44.969-20.176-44.969-44.969v-79.946c0-24.794 20.176-44.97 44.969-44.97zm-105.048 174.831h-95.326c-8.274 0-14.99-6.715-14.99-14.99 0-8.284 6.715-14.99 14.99-14.99h95.325c8.274 0 14.99 6.705 14.99 14.99.001 8.275-6.715 14.99-14.989 14.99zm0-59.959h-95.326c-8.274 0-14.99-6.715-14.99-14.99 0-8.284 6.715-14.99 14.99-14.99h95.325c8.274 0 14.99 6.705 14.99 14.99.001 8.275-6.715 14.99-14.989 14.99zm0-59.959h-95.326c-8.274 0-14.99-6.715-14.99-14.99 0-8.284 6.715-14.99 14.99-14.99h95.325c8.274 0 14.99 6.705 14.99 14.99.001 8.274-6.715 14.99-14.989 14.99zm0-59.959h-95.326c-8.274 0-14.99-6.715-14.99-14.99 0-8.284 6.715-14.99 14.99-14.99h95.325c8.274 0 14.99 6.705 14.99 14.99.001 8.274-6.715 14.99-14.989 14.99zm0-59.96h-95.326c-8.274 0-14.99-6.715-14.99-14.99 0-8.284 6.715-14.99 14.99-14.99h95.325c8.274 0 14.99 6.705 14.99 14.99.001 8.275-6.715 14.99-14.989 14.99z"/>
<path d="m241.124 27.809c4.077 0 7.885 1.669 10.603 4.387l95.565 95.575c3.208 3.208 4.657 7.045 4.657 10.853h-110.825z"/><g>
<path d="m507.113 312.136-94.996 86.621c-9.531 8.686-25.093 2.038-25.093-11.082v-31.678h-125.894c-8.274 0-14.99-6.706-14.99-14.99v-79.946c0-8.274 6.715-14.99 14.99-14.99h125.884l-.01-31.669c0-13.001 15.475-19.846 25.093-11.082l95.015 86.661c6.509 5.943 6.514 16.208.001 22.155z"/></g></g></svg>